<?xml version="1.0" standalone="no"?>
<!DOCTYPE svg PUBLIC "-//W3C//DTD SVG 20010904//EN"
 "http://www.w3.org/TR/2001/REC-SVG-20010904/DTD/svg10.dtd">
<svg version="1.0" xmlns="http://www.w3.org/2000/svg"
 width="300.000000pt" height="238.000000pt" viewBox="0 0 300.000000 238.000000"
 preserveAspectRatio="xMidYMid meet">
<metadata>
Created by potrace 1.10, written by Peter Selinger 2001-2011
</metadata>
<g transform="translate(0.000000,238.000000) scale(0.100000,-0.100000)"
fill="#000000" stroke="none">
<path d="M1524 2317 c-101 -124 -1272 -1546 -1392 -1689 l-122 -148 589 0 589
0 298 371 c165 204 331 411 369 460 39 48 149 186 246 306 425 526 609 757
605 760 -11 11 -44 -25 -161 -173 -71 -90 -132 -164 -135 -164 -3 0 -16 -17
-30 -37 -14 -20 -29 -41 -35 -47 -5 -6 -23 -29 -40 -51 -16 -21 -36 -46 -45
-55 -9 -9 -29 -34 -45 -55 -17 -22 -34 -45 -40 -51 -5 -7 -21 -26 -35 -44 -14
-18 -36 -45 -50 -60 -14 -15 -44 -54 -67 -86 -23 -32 -55 -73 -70 -90 -15 -16
-41 -48 -57 -70 -16 -21 -35 -46 -43 -54 -7 -8 -23 -27 -35 -43 -13 -15 -35
-42 -50 -60 -15 -17 -56 -68 -90 -112 -86 -109 -99 -124 -132 -159 -16 -17
-29 -33 -28 -36 0 -4 -22 -34 -73 -94 -5 -6 -26 -32 -45 -56 -19 -25 -42 -54
-50 -64 -8 -11 -28 -34 -44 -50 -16 -17 -36 -42 -45 -57 -9 -14 -30 -42 -48
-62 l-32 -37 -556 0 -556 0 28 39 c15 22 32 37 37 34 5 -4 6 -1 2 6 -4 6 0 14
8 17 9 3 13 10 10 15 -3 5 -1 9 4 9 5 0 33 31 61 70 28 38 62 77 74 87 12 10
31 32 42 49 11 17 39 53 62 80 71 84 156 187 198 239 22 28 44 55 50 61 5 6
35 42 65 79 30 38 71 87 90 109 19 23 51 62 70 86 19 24 47 57 62 74 47 54
182 217 203 245 31 41 126 155 139 166 6 6 23 26 36 45 13 19 49 65 80 101
131 156 200 242 200 252 0 18 -19 2 -66 -56z"/>
<path d="M2869 2359 c-27 -27 -21 -66 12 -91 25 -19 28 -19 58 -4 17 9 31 21
31 25 0 5 3 16 6 25 8 20 -38 66 -66 66 -11 0 -29 -9 -41 -21z m83 -13 c12
-17 9 -51 -4 -64 -30 -30 -95 7 -81 47 14 38 64 49 85 17z"/>
<path d="M2890 2315 c0 -14 5 -25 11 -25 5 0 7 5 4 10 -3 6 -1 10 4 10 6 0 11
-4 11 -10 0 -5 4 -10 9 -10 5 0 9 11 9 25 0 20 -6 25 -24 25 -19 0 -24 -5 -24
-25z"/>
<path d="M1917 1374 c-4 -4 -7 -201 -7 -438 l0 -431 456 2 c423 2 458 4 498
22 50 22 89 69 105 126 14 51 14 504 0 565 -13 57 -49 104 -102 133 -41 22
-48 22 -492 25 -248 1 -454 0 -458 -4z m966 -57 c64 -49 67 -66 67 -377 0
-333 -3 -346 -97 -394 -28 -14 -86 -16 -473 -16 l-440 0 0 410 0 411 453 -3
454 -3 36 -28z"/>
<path d="M440 161 c0 -136 2 -161 15 -161 13 0 15 23 15 145 0 138 1 145 20
145 18 0 20 -7 20 -68 0 -40 5 -73 12 -80 9 -9 9 -15 0 -24 -14 -14 -16 -118
-2 -118 6 0 10 24 10 53 l0 52 82 -3 c93 -4 108 -13 108 -69 0 -18 5 -33 10
-33 6 0 10 17 10 37 0 26 -8 45 -26 64 l-25 26 25 31 c31 36 33 70 6 105 l-20
26 32 -9 c17 -6 36 -14 41 -19 17 -17 9 -72 -12 -95 -26 -28 -27 -48 -1 -64
15 -9 20 -23 20 -57 0 -56 16 -59 23 -4 7 51 3 60 -31 82 -16 10 -21 17 -12
17 51 1 68 103 25 145 -23 24 -28 25 -169 25 -79 0 -151 3 -160 6 -14 5 -16
-12 -16 -155z m267 83 c16 -22 16 -39 3 -65 -9 -16 -22 -19 -95 -19 l-85 0 0
54 0 54 82 -3 c64 -3 85 -8 95 -21z"/>
<path d="M973 280 c-27 -66 -106 -235 -114 -245 -12 -13 -11 -35 2 -35 5 0 25
33 43 72 77 169 96 206 108 210 34 13 33 -7 -3 -81 -22 -45 -36 -86 -33 -95 5
-13 22 -16 88 -16 76 0 82 1 83 21 2 26 -54 141 -74 153 -12 6 -12 10 -3 16
30 18 50 -6 116 -141 37 -76 74 -139 81 -139 16 0 17 -3 -70 169 l-72 143 -69
2 -69 1 -14 -35z m125 -95 c18 -36 32 -68 32 -70 0 -3 -31 -5 -69 -5 l-69 0
31 70 c18 38 34 70 37 70 3 0 20 -29 38 -65z"/>
<path d="M1320 158 c0 -99 4 -158 10 -158 6 0 10 54 10 143 l0 143 25 2 24 2
-1 -113 c-1 -62 2 -119 6 -125 5 -8 39 -12 101 -12 84 0 97 2 121 23 53 46 41
185 -19 216 -21 11 -21 11 3 6 14 -4 31 -7 37 -7 30 -3 47 -40 51 -107 5 -81
-12 -122 -58 -141 -16 -7 -30 -16 -30 -21 0 -16 66 11 88 36 19 23 22 37 22
114 0 84 -1 88 -31 117 l-30 29 -165 5 -164 5 0 -157z m265 100 c46 -21 59
-135 19 -179 -14 -16 -32 -19 -106 -19 l-88 0 0 105 0 105 75 0 c41 0 86 -5
100 -12z"/>
<path d="M1754 309 c-2 -4 -3 -74 -3 -158 0 -126 2 -151 14 -151 13 0 15 25
15 146 0 133 1 145 18 142 13 -2 18 -15 20 -53 2 -27 8 -55 14 -63 8 -9 8 -16
0 -24 -15 -15 -16 -148 -2 -148 6 0 10 28 10 65 0 63 1 65 25 65 17 0 55 -23
107 -65 75 -61 113 -80 75 -37 -10 10 -14 22 -10 27 5 4 3 6 -2 2 -14 -8 -48
19 -40 33 3 6 3 10 -2 9 -21 -4 -35 3 -70 36 -37 33 -37 35 -18 49 11 9 26 16
33 16 6 0 12 5 12 11 0 5 5 7 12 3 8 -5 9 -2 5 10 -4 11 -1 19 11 23 9 4 21
12 25 20 4 7 17 13 27 13 19 0 19 -1 3 -20 -10 -11 -22 -20 -28 -20 -12 0 -55
-65 -55 -82 1 -18 25 -48 38 -48 6 0 16 -9 22 -20 6 -11 17 -20 25 -20 8 0 15
-7 15 -15 0 -8 6 -15 13 -15 7 0 23 -9 35 -20 12 -11 29 -20 38 -20 18 0 -4
22 -114 113 l-63 52 38 34 c138 123 139 124 113 117 -14 -3 -41 -6 -60 -6 -29
0 -47 -10 -100 -60 -39 -36 -74 -60 -87 -60 -21 0 -23 4 -23 63 l0 63 -41 -1
c-22 0 -43 -3 -45 -6z"/>
<path d="M2197 313 c-1 -1 -1 -71 1 -157 3 -174 22 -218 23 -53 0 130 9 181
31 185 15 3 16 -3 11 -45 -4 -37 -1 -53 11 -65 13 -14 14 -18 1 -28 -20 -16
-19 -84 1 -104 12 -12 38 -16 115 -16 81 0 99 -3 99 -15 0 -8 5 -15 10 -15 6
0 10 12 10 28 l0 27 -112 0 -113 0 -3 43 -3 42 111 0 c110 0 111 0 108 23 -3
21 -8 22 -111 25 l-108 3 3 37 3 37 111 0 111 0 1 25 1 25 -156 0 c-85 0 -155
-1 -156 -2z"/>
<path d="M2558 163 c2 -87 5 -160 8 -162 10 -11 13 14 16 144 l3 140 50 1 c41
2 54 -2 73 -22 13 -13 20 -24 15 -24 -4 0 0 -6 9 -12 8 -7 35 -40 60 -73 109
-144 121 -142 131 24 3 52 11 99 16 104 8 8 11 -33 11 -136 0 -91 4 -147 10
-147 6 0 10 55 10 144 0 79 3 151 6 160 5 13 -2 16 -41 16 l-46 0 3 -125 c2
-69 0 -125 -4 -125 -4 0 -25 26 -47 58 -21 31 -47 67 -57 78 -11 12 -33 42
-50 66 l-31 44 -74 2 -74 3 3 -158z"/>
<path d="M30 155 c0 -97 4 -155 10 -155 6 0 10 55 10 145 l0 145 30 0 c30 0
40 -13 19 -26 -7 -4 -8 -22 -5 -48 4 -22 6 -67 6 -99 -2 -79 7 -87 92 -87 74
0 99 9 138 48 14 14 20 22 13 19 -7 -4 -14 1 -18 13 -3 11 -17 28 -30 38 -22
18 -22 19 -4 30 37 23 19 86 -31 105 -8 3 1 5 20 5 38 -2 75 -16 66 -25 -3 -4
0 -13 7 -21 9 -12 9 -16 0 -19 -7 -3 -13 -11 -13 -19 0 -8 -7 -14 -15 -14 -23
0 -18 -36 8 -57 32 -25 43 -69 20 -82 -10 -6 -14 -11 -9 -11 5 0 1 -9 -8 -19
-17 -19 -17 -19 3 -14 61 16 67 130 9 149 -19 6 -19 6 1 25 32 30 37 66 14 97
-20 27 -20 27 -177 30 l-156 3 0 -156z m203 128 c-7 -2 -19 -2 -25 0 -7 3 -2
5 12 5 14 0 19 -2 13 -5z m41 -29 c18 -7 22 -49 6 -59 -6 -3 -45 -7 -88 -7
l-77 -1 -3 37 -3 36 75 0 c41 0 81 -3 90 -6z m23 -136 c27 -44 -8 -66 -104
-66 l-73 0 0 39 0 39 84 0 c57 0 87 -4 93 -12z"/>
<path d="M2624 258 c-5 -7 -8 -68 -9 -135 0 -95 3 -123 13 -123 10 0 12 27 10
125 -2 69 0 125 3 125 3 0 48 -56 99 -125 80 -109 110 -141 110 -119 0 8 -122
178 -135 186 -5 4 -6 8 -2 8 12 0 -58 70 -71 70 -6 0 -14 -6 -18 -12z"/>
<path d="M950 60 c-20 -20 -28 -60 -12 -60 4 0 13 13 19 30 l11 30 90 0 c73 0
92 -3 105 -18 10 -10 17 -24 17 -30 0 -7 7 -12 15 -12 13 0 14 4 4 22 -28 54
-37 58 -136 58 -80 0 -96 -3 -113 -20z"/>
</g>
</svg>
